<?xml version="1.0" encoding="UTF-8"?>
<svg width="192px" height="192px" viewBox="0 0 192 192" version="1.1" xmlns="http://www.w3.org/2000/svg" xmlns:xlink="http://www.w3.org/1999/xlink">
    <!-- Generator: Sketch 53.2 (72643) - https://sketchapp.com -->
    <title>android-icon-192x192</title>
    <desc>Created with Sketch.</desc>
    <g id="android-icon-192x192" stroke="none" stroke-width="1" fill="none" fill-rule="evenodd">
        <g id="Logo-Header" transform="translate(4.000000, 9.000000)">
            <path d="M113.437582,0.582947239 L113.148282,105.505092 L151.47843,104.133046 L148.602764,39.0617763 L131.152154,14.7137095 L113.437582,0.582947239 Z" id="Rectangle" stroke="#979797" stroke-width="1.96808511" fill="#636363" transform="translate(132.333373, 52.534393) rotate(-45.000000) translate(-132.333373, -52.534393) "></path>
            <polygon id="Path-31" stroke="#979797" stroke-width="1.96808511" fill="#000000" points="183.168317 72.9166667 181.203289 100.015619 142.871287 120.3125 142.871287 92.9994308"></polygon>
            <polygon id="Path-32" stroke="#979797" stroke-width="1.96808511" fill="#000000" points="102.574257 122.135417 102.574257 151.014066 56.7821782 175 56.7821782 144.847158"></polygon>
            <polygon id="Path-33" fill="#FFFFFF" points="57.2538284 144.010417 10.990099 98.497599 27.8644558 50.6322486 69.3598856 58.5517585 79.7685621 27.34375 134.293258 29.5290416 183.168317 72.1158901 142.40852 92.7517891 97.1246895 50.6322486 87.0530882 80.1269478 57.2538284 77.887492 69.3598856 90.834587 89.3009863 111.727588"></polygon>
            <polygon id="Path-34" stroke="#979797" stroke-width="1.96808511" fill="#979797" points="27.7064815 52.8645833 2.16215322 76.5378566 0 99.9587644 10.2346203 128.379028 56.7821782 175 56.7821782 144.738315 11.0122266 99.9587644"></polygon>
            <polygon id="Path-35" stroke="#979797" stroke-width="1.96808511" fill="#000000" points="142.871287 94.4355793 142.871287 122.135417 97.1251538 76.6121496 97.0792079 52.8645833"></polygon>
            <polygon id="Path-36" stroke="#979797" stroke-width="1.96808511" fill="#000000" points="87.9207921 81.6452422 87.9207921 94.7916667 97.0792079 76.3430139 97.0792079 52.8645833"></polygon>
            <polygon id="Path-37" stroke="#979797" stroke-width="1.96808511" fill="#000000" points="86.0891089 94.7916667 71.5117433 94.7916667 56.7821782 80.2083333 86.0891089 82.2869133"></polygon>
            <polygon id="Triangle" fill="#FFFFFF" transform="translate(78.762376, 109.375000) scale(-1, 1) translate(-78.762376, -109.375000) " points="102.574257 74.7395833 99.0883104 144.010417 54.950495 121.084642"></polygon>
            <polygon id="Path-17" stroke="#000000" stroke-width="1.96808511" fill="#636363" points="1.83168317 75.1807244 18.039338 78.3854167 27.4752475 51.0416667"></polygon>
            <polygon id="Path-20" stroke="#000000" stroke-width="1.96808511" points="3.66336634 76.5625 11.6958701 100.260417 18.3168317 79.7425267"></polygon>
            <polygon id="Path-24" stroke="#000000" stroke-width="1.96808511" fill="#636363" points="0 98.2384185 10.990099 100.260417 2.15780867 76.5625"></polygon>
            <polygon id="Path-25" stroke="#000000" stroke-width="1.96808511" points="10.2140552 129.427083 10.990099 100.473372 3.24698937e-15 98.4375 0 100.473372"></polygon>
            <polygon id="Path-29" stroke="#979797" stroke-width="1.96808511" points="135.544554 31.3051203 108.299505 40.1041667 80.5940594 29.1666667"></polygon>
            <polygon id="Path-30" stroke="#979797" stroke-width="1.96808511" points="10.990099 98.4375 36.6336634 78.8144808 28.361975 52.8645833"></polygon>
            <polygon id="Path-38" stroke="#979797" stroke-width="1.96808511" fill="#1B1B1B" points="35.4690292 76.5625 38.4977821 63.2921231 68.7588781 57.7336481 80.6870799 40.4655882 106.237624 38.2278075 79.1144271 27.34375 68.7588781 57.7336481 27.4752475 50.0217462"></polygon>
            <polygon id="Path-39" fill="#FFFFFF" points="71.4356436 162.239583 71.4356436 141.715099 77.5056663 138.657494 82.2839079 141.715099 85.3290853 134.541542 91.5841584 131.25 91.5841584 151.67337 86.3243517 154.451821 86.3243517 143.862469 82.2839079 149.765198 77.5056663 147.702303 77.5056663 159.25772"></polygon>
            <polygon id="Path-39" fill="#FFFFFF" points="155.693069 111.197917 155.693069 90.6734326 161.763092 87.6158277 166.541334 90.6734326 169.586511 83.4998753 175.841584 80.2083333 175.841584 100.631704 170.581777 103.410154 170.581777 92.8208023 166.541334 98.7235315 161.763092 96.6606362 161.763092 108.216053"></polygon>
        </g>
    </g>
</svg>