<?xml version="1.0" encoding="UTF-8"?>
<svg width="120px" height="120px" viewBox="0 0 120 120" version="1.1" xmlns="http://www.w3.org/2000/svg" xmlns:xlink="http://www.w3.org/1999/xlink">
    <!-- Generator: Sketch 53.2 (72643) - https://sketchapp.com -->
    <title>apple-icon-120x120</title>
    <desc>Created with Sketch.</desc>
    <g id="apple-icon-120x120" stroke="none" stroke-width="1" fill="none" fill-rule="evenodd">
        <g id="Logo-Header" transform="translate(3.000000, 6.000000)">
            <path d="M70.5113964,0.33673225 L70.2660619,65.7579502 L94.2054851,64.8772915 L92.4538712,24.3322127 L81.5999001,9.17792966 L70.5113964,0.33673225 Z" id="Rectangle" stroke="#979797" stroke-width="1.13861386" fill="#636363" transform="translate(82.246764, 32.753437) rotate(-45.000000) translate(-82.246764, -32.753437) "></path>
            <polygon id="Path-31" stroke="#979797" stroke-width="1.13861386" fill="#000000" points="113.861386 45.4166667 112.639883 62.2954428 88.8118812 74.9375 88.8118812 57.9253597"></polygon>
            <polygon id="Path-32" stroke="#979797" stroke-width="1.13861386" fill="#000000" points="63.7623762 76.0729167 63.7623762 94.0601894 35.2970297 109 35.2970297 90.2190868"></polygon>
            <polygon id="Path-33" fill="#FFFFFF" points="35.5902176 89.6979167 6.83168317 61.3499331 17.3211482 31.5366577 43.1156045 36.469381 49.585863 17.03125 83.4795929 18.3923745 113.861386 44.9178973 88.524215 57.7711144 60.374807 31.5366577 54.1140818 49.9076418 35.5902176 48.5127807 43.1156045 56.5769713 55.5114239 69.5903264"></polygon>
            <polygon id="Path-34" stroke="#979797" stroke-width="1.13861386" fill="#979797" points="17.222948 32.9270833 1.34404119 47.6721507 0 62.2600304 6.36206124 79.9617949 35.2970297 109 35.2970297 90.1512933 6.84543814 62.2600304"></polygon>
            <polygon id="Path-35" stroke="#979797" stroke-width="1.13861386" fill="#000000" points="88.8118812 58.8198751 88.8118812 76.0729167 60.3750956 47.7184246 60.3465347 32.9270833"></polygon>
            <polygon id="Path-36" stroke="#979797" stroke-width="1.13861386" fill="#000000" points="54.6534653 50.8533223 54.6534653 59.0416667 60.3465347 47.5507915 60.3465347 32.9270833"></polygon>
            <polygon id="Path-37" stroke="#979797" stroke-width="1.13861386" fill="#000000" points="53.5148515 59.0416667 44.4532458 59.0416667 35.2970297 49.9583333 53.5148515 51.2529917"></polygon>
            <polygon id="Triangle" fill="#FFFFFF" transform="translate(48.960396, 68.125000) scale(-1, 1) translate(-48.960396, -68.125000) " points="63.7623762 46.5520833 61.5954362 89.6979167 34.1584158 75.418434"></polygon>
            <polygon id="Path-17" stroke="#000000" stroke-width="1.13861386" fill="#636363" points="1.13861386 46.8268512 11.2136425 48.8229167 17.0792079 31.7916667"></polygon>
            <polygon id="Path-20" stroke="#000000" stroke-width="1.13861386" points="2.27722772 47.6875 7.27040572 62.4479167 11.3861386 49.6682024"></polygon>
            <polygon id="Path-24" stroke="#000000" stroke-width="1.13861386" fill="#636363" points="0 61.1885007 6.83168317 62.4479167 1.34134052 47.6875"></polygon>
            <polygon id="Path-25" stroke="#000000" stroke-width="1.13861386" points="6.34927754 80.6145833 6.83168317 62.5805574 2.0183988e-15 61.3125 0 62.5805574"></polygon>
            <polygon id="Path-29" stroke="#979797" stroke-width="1.13861386" points="84.2574257 19.4986178 67.3213138 24.9791667 50.0990099 18.1666667"></polygon>
            <polygon id="Path-30" stroke="#979797" stroke-width="1.13861386" points="6.83168317 61.3125 22.7722772 49.0901623 17.6304169 32.9270833"></polygon>
            <polygon id="Path-38" stroke="#979797" stroke-width="1.13861386" fill="#1B1B1B" points="22.0483155 47.6875 23.9310538 39.421951 42.7420053 35.9598151 50.1568334 25.2042806 66.039604 23.810463 49.1792385 17.03125 42.7420053 35.9598151 17.0792079 31.1564019"></polygon>
            <polygon id="Path-39" fill="#FFFFFF" points="44.4059406 101.052083 44.4059406 88.2682618 48.1791979 86.3638108 51.1494562 88.2682618 53.0424044 83.8001604 56.9306931 81.75 56.9306931 94.470842 53.6610835 96.20142 53.6610835 89.6057664 51.1494562 93.2823234 48.1791979 91.9974344 48.1791979 99.1948082"></polygon>
            <polygon id="Path-39" fill="#FFFFFF" points="96.7821782 69.2604167 96.7821782 56.4765952 100.555436 54.5721441 103.525694 56.4765952 105.418642 52.0084938 109.306931 49.9583333 109.306931 62.6791754 106.037321 64.4097533 106.037321 57.8140997 103.525694 61.4906567 100.555436 60.2057677 100.555436 67.4031416"></polygon>
        </g>
    </g>
</svg>