<?xml version="1.0" encoding="UTF-8"?>
<svg width="180px" height="180px" viewBox="0 0 180 180" version="1.1" xmlns="http://www.w3.org/2000/svg" xmlns:xlink="http://www.w3.org/1999/xlink">
    <!-- Generator: Sketch 53.2 (72643) - https://sketchapp.com -->
    <title>apple-icon-180x180</title>
    <desc>Created with Sketch.</desc>
    <g id="apple-icon-180x180" stroke="none" stroke-width="1" fill="none" fill-rule="evenodd">
        <g id="Logo-Header" transform="translate(3.000000, 7.000000)">
            <path d="M107.323056,0.549953392 L106.910425,100.144725 L143.355555,98.7897146 L140.713225,37.0665075 L124.199009,14.0032412 L107.323056,0.549953392 Z" id="Rectangle" stroke="#979797" stroke-width="1.73267327" fill="#636363" transform="translate(125.149358, 49.900657) rotate(-45.000000) translate(-125.149358, -49.900657) "></path>
            <polygon id="Path-31" stroke="#979797" stroke-width="1.73267327" fill="#000000" points="173.267327 69.1666667 171.408517 94.8719587 135.148515 114.125 135.148515 88.2166029"></polygon>
            <polygon id="Path-32" stroke="#979797" stroke-width="1.73267327" fill="#000000" points="97.029703 115.854167 97.029703 143.247628 53.7128713 166 53.7128713 137.397875"></polygon>
            <polygon id="Path-33" fill="#FFFFFF" points="54.1590268 136.604167 10.3960396 93.4320082 26.358269 48.0283044 65.6107026 55.5405252 75.456748 25.9375 127.034163 28.0104052 173.267327 68.4070729 134.710762 87.9816971 91.8747063 48.0283044 82.3475158 76.0061334 54.1590268 73.8818496 65.6107026 86.1630939 84.473906 105.981598"></polygon>
            <polygon id="Path-34" stroke="#979797" stroke-width="1.73267327" fill="#979797" points="26.2088339 50.1458333 2.04528007 72.601624 0 94.818028 9.68139754 121.776678 53.7128713 166 53.7128713 137.29463 10.4169711 94.818028"></polygon>
            <polygon id="Path-35" stroke="#979797" stroke-width="1.73267327" fill="#000000" points="135.148515 89.5788924 135.148515 115.854167 91.8751455 72.6720962 91.8316832 50.1458333"></polygon>
            <polygon id="Path-36" stroke="#979797" stroke-width="1.73267327" fill="#000000" points="83.1683168 77.446344 83.1683168 89.9166667 91.8316832 72.4168018 91.8316832 50.1458333"></polygon>
            <polygon id="Path-37" stroke="#979797" stroke-width="1.73267327" fill="#000000" points="81.4356436 89.9166667 67.6462437 89.9166667 53.7128713 76.0833333 81.4356436 78.0550149"></polygon>
            <polygon id="Triangle" fill="#FFFFFF" transform="translate(74.504950, 103.750000) scale(-1, 1) translate(-74.504950, -103.750000) " points="97.029703 70.8958333 93.7321855 136.604167 51.980198 114.857432"></polygon>
            <polygon id="Path-17" stroke="#000000" stroke-width="1.73267327" fill="#636363" points="1.73267327 71.3142872 17.0642386 74.3541667 25.990099 48.4166667"></polygon>
            <polygon id="Path-20" stroke="#000000" stroke-width="1.73267327" points="3.46534653 72.625 11.0636609 95.1041667 17.3267327 75.6414825"></polygon>
            <polygon id="Path-24" stroke="#000000" stroke-width="1.73267327" fill="#636363" points="0 93.186157 10.3960396 95.1041667 2.04117036 72.625"></polygon>
            <polygon id="Path-25" stroke="#000000" stroke-width="1.73267327" points="9.66194409 122.770833 10.3960396 95.3061699 3.07147643e-15 93.375 0 95.3061699"></polygon>
            <polygon id="Path-29" stroke="#979797" stroke-width="1.73267327" points="128.217822 29.6951426 102.445478 38.0416667 76.2376238 27.6666667"></polygon>
            <polygon id="Path-30" stroke="#979797" stroke-width="1.73267327" points="10.3960396 93.375 34.6534653 74.7611647 26.8288953 50.1458333"></polygon>
            <polygon id="Path-38" stroke="#979797" stroke-width="1.73267327" fill="#1B1B1B" points="33.5517844 72.625 36.4168209 60.0370996 65.0421819 54.764489 76.3256161 38.3845008 100.49505 36.261806 74.8379716 25.9375 65.0421819 54.764489 25.990099 47.4491993"></polygon>
            <polygon id="Path-39" fill="#FFFFFF" points="67.5742574 153.895833 67.5742574 134.426894 73.3161708 131.526537 77.8361291 134.426894 80.7167023 127.622263 86.6336634 124.5 86.6336634 143.873025 81.6581705 146.508585 81.6581705 136.463828 77.8361291 142.062988 73.3161708 140.106184 73.3161708 151.067323"></polygon>
            <polygon id="Path-39" fill="#FFFFFF" points="147.277228 105.479167 147.277228 86.0102275 153.019141 83.1098708 157.539099 86.0102275 160.419673 79.205596 166.336634 76.0833333 166.336634 95.4563588 161.361141 98.0919179 161.361141 88.047161 157.539099 93.6463213 153.019141 91.6895178 153.019141 102.650656"></polygon>
        </g>
    </g>
</svg>