<?xml version="1.0" encoding="UTF-8"?>
<svg width="60px" height="60px" viewBox="0 0 60 60" version="1.1" xmlns="http://www.w3.org/2000/svg" xmlns:xlink="http://www.w3.org/1999/xlink">
    <!-- Generator: Sketch 53.2 (72643) - https://sketchapp.com -->
    <title>apple-icon-60x60</title>
    <desc>Created with Sketch.</desc>
    <g id="apple-icon-60x60" stroke="none" stroke-width="1" fill="none" fill-rule="evenodd">
        <g id="Logo-Header" transform="translate(3.000000, 4.000000)">
            <path d="M33.7199108,0.165543821 L33.6420279,31.3501642 L45.0342499,30.9453303 L44.1745205,11.6046393 L39.0176491,4.39200474 L33.7199108,0.165543821 Z" id="Rectangle" stroke="#979797" stroke-width="0.585106383" fill="#636363" transform="translate(39.344169, 15.606218) rotate(-45.000000) translate(-39.344169, -15.606218) "></path>
            <polygon id="Path-31" stroke="#979797" stroke-width="0.585106383" fill="#000000" points="54.4554455 21.6666667 53.8712482 29.7189268 42.4752475 35.75 42.4752475 27.6341166"></polygon>
            <polygon id="Path-32" stroke="#979797" stroke-width="0.585106383" fill="#000000" points="30.4950495 36.2916667 30.4950495 44.8727509 16.8811881 52 16.8811881 43.0402983"></polygon>
            <polygon id="Path-33" fill="#FFFFFF" points="17.0214084 42.7916667 3.26732673 29.267858 8.28402739 15.045011 20.6205065 17.3982368 23.7149779 8.125 39.9250227 8.7743438 54.4554455 21.4287216 42.337668 27.5605316 28.8749077 15.045011 25.8806478 23.8091502 17.0214084 23.1437119 20.6205065 26.9908487 26.5489419 33.1990548"></polygon>
            <polygon id="Path-34" stroke="#979797" stroke-width="0.585106383" fill="#979797" points="8.23706208 15.7083333 0.642802309 22.7426774 0 29.7020329 3.04272494 38.1469113 16.8811881 52 16.8811881 43.0079564 3.2739052 29.7020329"></polygon>
            <polygon id="Path-35" stroke="#979797" stroke-width="0.585106383" fill="#000000" points="42.4752475 28.0608579 42.4752475 36.2916667 28.8750457 22.764753 28.8613861 15.7083333"></polygon>
            <polygon id="Path-36" stroke="#979797" stroke-width="0.585106383" fill="#000000" points="26.1386139 24.2603005 26.1386139 28.1666667 28.8613861 22.6847813 28.8613861 15.7083333"></polygon>
            <polygon id="Path-37" stroke="#979797" stroke-width="0.585106383" fill="#000000" points="25.5940594 28.1666667 21.260248 28.1666667 16.8811881 23.8333333 25.5940594 24.4509685"></polygon>
            <polygon id="Triangle" fill="#FFFFFF" transform="translate(23.415842, 32.500000) scale(-1, 1) translate(-23.415842, -32.500000) " points="30.4950495 22.2083333 29.4586869 42.7916667 16.3366337 35.9794364"></polygon>
            <polygon id="Path-17" stroke="#000000" stroke-width="0.585106383" fill="#636363" points="0.544554455 22.3394153 5.36304643 23.2916667 8.16831683 15.1666667"></polygon>
            <polygon id="Path-20" stroke="#000000" stroke-width="0.585106383" points="1.08910891 22.75 3.47715056 29.7916667 5.44554455 23.6949222"></polygon>
            <polygon id="Path-24" stroke="#000000" stroke-width="0.585106383" fill="#636363" points="0 29.1908443 3.26732673 29.7916667 0.641510685 22.75"></polygon>
            <polygon id="Path-25" stroke="#000000" stroke-width="0.585106383" points="3.036611 38.4583333 3.26732673 29.8549448 9.65321164e-16 29.25 0 29.8549448"></polygon>
            <polygon id="Path-29" stroke="#979797" stroke-width="0.585106383" points="40.2970297 9.30209288 32.1971501 11.9166667 23.960396 8.66666667"></polygon>
            <polygon id="Path-30" stroke="#979797" stroke-width="0.585106383" points="3.26732673 29.25 10.8910891 23.41916 8.43193852 15.7083333"></polygon>
            <polygon id="Path-38" stroke="#979797" stroke-width="0.585106383" fill="#1B1B1B" points="10.5448465 22.75 11.4452866 18.8068023 20.4418286 17.1551411 23.9880508 12.0240605 31.5841584 11.3591199 23.5205054 8.125 20.4418286 17.1551411 8.16831683 14.8636046"></polygon>
            <polygon id="Path-39" fill="#FFFFFF" points="21.2376238 48.2083333 21.2376238 42.1096295 23.0422251 41.201084 24.4627834 42.1096295 25.3681064 39.9780582 27.2277228 39 27.2277228 45.0686586 25.6639965 45.8942554 25.6639965 42.7477051 24.4627834 44.5016589 23.0422251 43.8886843 23.0422251 47.3222938"></polygon>
            <polygon id="Path-39" fill="#FFFFFF" points="46.2871287 33.0416667 46.2871287 26.9429628 48.0917301 26.0344174 49.5122884 26.9429628 50.4176114 24.8113915 52.2772277 23.8333333 52.2772277 29.9019919 50.7135014 30.7275887 50.7135014 27.5810384 49.5122884 29.3349922 48.0917301 28.7220176 48.0917301 32.1556272"></polygon>
        </g>
    </g>
</svg>