<?xml version="1.0" encoding="UTF-8"?>
<svg width="144px" height="144px" viewBox="0 0 144 144" version="1.1" xmlns="http://www.w3.org/2000/svg" xmlns:xlink="http://www.w3.org/1999/xlink">
    <!-- Generator: Sketch 53.2 (72643) - https://sketchapp.com -->
    <title>apple-icon-144x144</title>
    <desc>Created with Sketch.</desc>
    <g id="apple-icon-144x144" stroke="none" stroke-width="1" fill="none" fill-rule="evenodd">
        <g id="Logo-Header" transform="translate(2.000000, 6.000000)">
            <path d="M85.8938747,0.497518815 L85.5035136,80.2358071 L114.683494,79.1289858 L112.605159,29.7133549 L99.3979197,11.2590602 L85.8938747,0.497518815 Z" id="Rectangle" stroke="#979797" stroke-width="1.38613861" fill="#636363" transform="translate(100.106053, 40.010179) rotate(-45.000000) translate(-100.106053, -40.010179) "></path>
            <polygon id="Path-31" stroke="#979797" stroke-width="1.38613861" fill="#000000" points="138.613861 55.4166667 137.126813 76.0118705 108.118812 91.4375 108.118812 70.6795674"></polygon>
            <polygon id="Path-32" stroke="#979797" stroke-width="1.38613861" fill="#000000" points="77.6237624 92.8229167 77.6237624 114.77069 42.970297 133 42.970297 110.08384"></polygon>
            <polygon id="Path-33" fill="#FFFFFF" points="43.3272215 109.447917 8.31683168 74.8581753 21.0866152 38.4805089 52.488562 44.4993365 60.3653984 20.78125 101.62733 22.4420716 138.613861 54.8080765 107.76861 70.4913597 73.499765 38.4805089 65.8780127 60.8964804 43.3272215 59.1944939 52.488562 69.0342861 67.5791248 84.912967"></polygon>
            <polygon id="Path-34" stroke="#979797" stroke-width="1.38613861" fill="#979797" points="20.9670671 40.1770833 1.63622406 58.168771 0 75.968661 7.74511803 97.5680616 42.970297 133 42.970297 110.001119 8.33357687 75.968661"></polygon>
            <polygon id="Path-35" stroke="#979797" stroke-width="1.38613861" fill="#000000" points="108.118812 71.7710403 108.118812 92.8229167 73.5001164 58.2252337 73.4653465 40.1770833"></polygon>
            <polygon id="Path-36" stroke="#979797" stroke-width="1.38613861" fill="#000000" points="66.5346535 62.0503841 66.5346535 72.0416667 73.4653465 58.0206906 73.4653465 40.1770833"></polygon>
            <polygon id="Path-37" stroke="#979797" stroke-width="1.38613861" fill="#000000" points="65.1485149 72.0416667 54.1169949 72.0416667 42.970297 60.9583333 65.1485149 62.5380541"></polygon>
            <polygon id="Triangle" fill="#FFFFFF" transform="translate(59.603960, 83.125000) scale(-1, 1) translate(-59.603960, -83.125000) " points="77.6237624 56.8020833 74.9857484 109.447917 41.5841584 92.0243277"></polygon>
            <polygon id="Path-17" stroke="#000000" stroke-width="1.38613861" fill="#636363" points="1.38613861 57.1373506 13.6513909 59.5729167 20.7920792 38.7916667"></polygon>
            <polygon id="Path-20" stroke="#000000" stroke-width="1.38613861" points="2.77227723 58.1875 8.85092871 76.1979167 13.8613861 60.6043203"></polygon>
            <polygon id="Path-24" stroke="#000000" stroke-width="1.38613861" fill="#636363" points="0 74.661198 8.31683168 76.1979167 1.63293629 58.1875"></polygon>
            <polygon id="Path-25" stroke="#000000" stroke-width="1.38613861" points="7.72955527 98.3645833 8.31683168 76.3597627 2.45718115e-15 74.8125 0 76.3597627"></polygon>
            <polygon id="Path-29" stroke="#979797" stroke-width="1.38613861" points="102.574257 23.7918914 81.956382 30.4791667 60.990099 22.1666667"></polygon>
            <polygon id="Path-30" stroke="#979797" stroke-width="1.38613861" points="8.31683168 74.8125 27.7227723 59.8990054 21.4631162 40.1770833"></polygon>
            <polygon id="Path-38" stroke="#979797" stroke-width="1.38613861" fill="#1B1B1B" points="26.8414275 58.1875 29.1334568 48.1020136 52.0337456 43.8775725 61.0604929 30.753847 80.3960396 29.0531337 59.8703773 20.78125 52.0337456 43.8775725 20.7920792 38.0165271"></polygon>
            <polygon id="Path-39" fill="#FFFFFF" points="54.0594059 123.302083 54.0594059 107.703475 58.6529366 105.379696 62.2689032 107.703475 64.5733618 102.251572 69.3069307 99.75 69.3069307 115.271761 65.3265364 117.383384 65.3265364 109.335476 62.2689032 113.821551 58.6529366 112.25375 58.6529366 121.035867"></polygon>
            <polygon id="Path-39" fill="#FFFFFF" points="117.821782 84.5104167 117.821782 68.9118088 122.415313 66.588029 126.031279 68.9118088 128.335738 63.4599052 133.069307 60.9583333 133.069307 76.4800947 129.088913 78.5917173 129.088913 70.5438097 126.031279 75.0298839 122.415313 73.4620835 122.415313 82.2442003"></polygon>
        </g>
    </g>
</svg>