<?xml version="1.0" encoding="UTF-8"?>
<svg width="57px" height="57px" viewBox="0 0 57 57" version="1.1" xmlns="http://www.w3.org/2000/svg" xmlns:xlink="http://www.w3.org/1999/xlink">
    <!-- Generator: Sketch 53.2 (72643) - https://sketchapp.com -->
    <title>apple-icon-57x57</title>
    <desc>Created with Sketch.</desc>
    <g id="apple-icon-57x57" stroke="none" stroke-width="1" fill="none" fill-rule="evenodd">
        <g id="Logo-Header" transform="translate(3.000000, 5.000000)">
            <path d="M31.2290082,0.090828372 L31.2223758,28.9392573 L41.7600139,28.5886585 L40.9241205,10.6950776 L36.1376276,4.01089484 L31.2290082,0.090828372 Z" id="Rectangle" stroke="#979797" stroke-width="0.542553191" fill="#636363" transform="translate(36.497430, 14.373416) rotate(-45.000000) translate(-36.497430, -14.373416) "></path>
            <polygon id="Path-31" stroke="#979797" stroke-width="0.542553191" fill="#000000" points="50.4950495 20 49.9533392 27.4328555 39.3861386 33 39.3861386 25.5084153"></polygon>
            <polygon id="Path-32" stroke="#979797" stroke-width="0.542553191" fill="#000000" points="28.2772277 33.5 28.2772277 41.4210009 15.6534653 48 15.6534653 39.7295061"></polygon>
            <polygon id="Path-33" fill="#FFFFFF" points="15.7834878 39.5 3.02970297 27.0164843 7.68155267 13.8877025 19.1208333 16.0599109 21.9902523 7.5 37.0213847 8.09939428 50.4950495 19.7803584 39.2585649 25.4404907 26.7749144 13.8877025 23.9984189 21.9776771 15.7834878 21.3634264 19.1208333 24.9146296 24.6181097 30.6452813"></polygon>
            <polygon id="Path-34" stroke="#979797" stroke-width="0.542553191" fill="#979797" points="7.63800302 14.5 0.59605305 20.9932407 0 27.4172611 2.82143585 35.2125335 15.6534653 48 15.6534653 39.6996521 3.035803 27.4172611"></polygon>
            <polygon id="Path-35" stroke="#979797" stroke-width="0.542553191" fill="#000000" points="39.3861386 25.9023303 39.3861386 33.5 26.7750424 21.0136182 26.7623762 14.5"></polygon>
            <polygon id="Path-36" stroke="#979797" stroke-width="0.542553191" fill="#000000" points="24.2376238 22.3941236 24.2376238 26 26.7623762 20.9397981 26.7623762 14.5"></polygon>
            <polygon id="Path-37" stroke="#979797" stroke-width="0.542553191" fill="#000000" points="23.7326733 26 19.7140482 26 15.6534653 22 23.7326733 22.5701248"></polygon>
            <polygon id="Triangle" fill="#FFFFFF" transform="translate(21.712871, 30.000000) scale(-1, 1) translate(-21.712871, -30.000000) " points="28.2772277 20.5 27.3162369 39.5 15.1485149 33.2117874"></polygon>
            <polygon id="Path-17" stroke="#000000" stroke-width="0.542553191" fill="#636363" points="0.504950495 20.6209987 4.97300669 21.5 7.57425743 14"></polygon>
            <polygon id="Path-20" stroke="#000000" stroke-width="0.542553191" points="1.00990099 21 3.22426689 27.5 5.04950495 21.8722359"></polygon>
            <polygon id="Path-24" stroke="#000000" stroke-width="0.542553191" fill="#636363" points="0 26.9453948 3.02970297 27.5 0.594855363 21"></polygon>
            <polygon id="Path-25" stroke="#000000" stroke-width="0.542553191" points="2.81576656 35.5 3.02970297 27.5584106 8.95115989e-16 27 0 27.5584106"></polygon>
            <polygon id="Path-29" stroke="#979797" stroke-width="0.542553191" points="37.3663366 8.58654727 29.8555392 11 22.2178218 8"></polygon>
            <polygon id="Path-30" stroke="#979797" stroke-width="0.542553191" points="3.02970297 27 10.0990099 21.6176862 7.81870663 14.5"></polygon>
            <polygon id="Path-38" stroke="#979797" stroke-width="0.542553191" fill="#1B1B1B" points="9.7779486 21 10.6129021 17.3601252 18.9551502 15.8355149 22.2434653 11.0991328 29.2871287 10.4853415 21.8099231 7.5 18.9551502 15.8355149 7.57425743 13.7202504"></polygon>
            <polygon id="Path-39" fill="#FFFFFF" points="19.6930693 44.5 19.6930693 38.8704272 21.3664269 38.0317699 22.6836719 38.8704272 23.5231532 36.9028229 25.2475248 36 25.2475248 41.6018387 23.797524 42.3639281 23.797524 39.4594201 22.6836719 41.0784543 21.3664269 40.5126316 21.3664269 43.6821174"></polygon>
            <polygon id="Path-39" fill="#FFFFFF" points="42.9207921 30.5 42.9207921 24.8704272 44.5941497 24.0317699 45.9113947 24.8704272 46.750876 22.9028229 48.4752475 22 48.4752475 27.6018387 47.0252468 28.3639281 47.0252468 25.4594201 45.9113947 27.0784543 44.5941497 26.5126316 44.5941497 29.6821174"></polygon>
        </g>
    </g>
</svg>