<?xml version="1.0" encoding="UTF-8"?>
<svg width="76px" height="76px" viewBox="0 0 76 76" version="1.1" xmlns="http://www.w3.org/2000/svg" xmlns:xlink="http://www.w3.org/1999/xlink">
    <!-- Generator: Sketch 53.2 (72643) - https://sketchapp.com -->
    <title>apple-icon-76x76</title>
    <desc>Created with Sketch.</desc>
    <g id="apple-icon-76x76" stroke="none" stroke-width="1" fill="none" fill-rule="evenodd">
        <g id="Logo-Header" transform="translate(3.000000, 5.000000)">
            <path d="M42.8576667,0.103401399 L42.8131077,39.8185744 L57.3448599,39.3221385 L56.2168292,14.7058475 L49.6400606,5.51768741 L42.8576667,0.103401399 Z" id="Rectangle" stroke="#979797" stroke-width="0.691637346" fill="#636363" transform="translate(50.086610, 19.780955) rotate(-45.000000) translate(-50.086610, -19.780955) "></path>
            <polygon id="Path-31" stroke="#979797" stroke-width="0.691637346" fill="#000000" points="69.3069307 27.5 68.5634067 37.7201763 54.0594059 45.375 54.0594059 35.074071"></polygon>
            <polygon id="Path-32" stroke="#979797" stroke-width="0.691637346" fill="#000000" points="38.8118812 46.0625 38.8118812 56.9538762 21.4851485 66 21.4851485 54.6280709"></polygon>
            <polygon id="Path-33" fill="#FFFFFF" points="21.6636107 54.3125 4.15841584 37.1476659 10.5433076 19.0955909 26.244281 22.0823775 30.1826992 10.3125 50.8136652 11.1366671 69.3069307 27.1979928 53.8843048 34.9806748 36.7498825 19.0955909 32.9390063 30.219306 21.6636107 29.3747113 26.244281 34.2576157 33.7895624 42.1372618"></polygon>
            <polygon id="Path-34" stroke="#979797" stroke-width="0.691637346" fill="#979797" points="10.4835336 19.9375 0.81811203 28.8657059 0 37.698734 3.87255902 48.4172336 21.4851485 66 21.4851485 54.5870216 4.16678844 37.698734"></polygon>
            <polygon id="Path-35" stroke="#979797" stroke-width="0.691637346" fill="#000000" points="54.0594059 35.6157042 54.0594059 46.0625 36.7500582 28.893725 36.7326733 19.9375"></polygon>
            <polygon id="Path-36" stroke="#979797" stroke-width="0.691637346" fill="#000000" points="33.2673267 30.7919199 33.2673267 35.75 36.7326733 28.7922224 36.7326733 19.9375"></polygon>
            <polygon id="Path-37" stroke="#979797" stroke-width="0.691637346" fill="#000000" points="32.5742574 35.75 27.0584975 35.75 21.4851485 30.25 32.5742574 31.0339216"></polygon>
            <polygon id="Triangle" fill="#FFFFFF" transform="translate(29.801980, 41.250000) scale(-1, 1) translate(-29.801980, -41.250000) " points="38.8118812 28.1875 37.4928742 54.3125 20.7920792 45.6662077"></polygon>
            <polygon id="Path-17" stroke="#000000" stroke-width="0.691637346" fill="#636363" points="0.693069307 28.3538732 6.82569545 29.5625 10.3960396 19.25"></polygon>
            <polygon id="Path-20" stroke="#000000" stroke-width="0.691637346" points="1.38613861 28.875 4.42546435 37.8125 6.93069307 30.0743244"></polygon>
            <polygon id="Path-24" stroke="#000000" stroke-width="0.691637346" fill="#636363" points="0 37.0499178 4.15841584 37.8125 0.816468145 28.875"></polygon>
            <polygon id="Path-25" stroke="#000000" stroke-width="0.691637346" points="3.86477764 48.8125 4.15841584 37.8928146 1.22859057e-15 37.125 0 37.8928146"></polygon>
            <polygon id="Path-29" stroke="#979797" stroke-width="0.691637346" points="51.2871287 11.8065025 40.978191 15.125 30.4950495 11"></polygon>
            <polygon id="Path-30" stroke="#979797" stroke-width="0.691637346" points="4.15841584 37.125 13.8613861 29.7243185 10.7315581 19.9375"></polygon>
            <polygon id="Path-38" stroke="#979797" stroke-width="0.691637346" fill="#1B1B1B" points="13.4207138 28.875 14.5667284 23.8701721 26.0168728 21.773833 30.5302464 15.2613075 40.1980198 14.4173445 29.9351886 10.3125 26.0168728 21.773833 10.3960396 18.8653443"></polygon>
            <polygon id="Path-39" fill="#FFFFFF" points="27.029703 61.1875 27.029703 53.4468374 29.3264683 52.2936836 31.1344516 53.4468374 32.2866809 50.7413815 34.6534653 49.5 34.6534653 57.2025282 32.6632682 58.2504011 32.6632682 54.2567026 31.1344516 56.4828747 29.3264683 55.7048685 29.3264683 60.0629114"></polygon>
            <polygon id="Path-39" fill="#FFFFFF" points="58.9108911 41.9375 58.9108911 34.1968374 61.2076564 33.0436836 63.0156397 34.1968374 64.167869 31.4913815 66.5346535 30.25 66.5346535 37.9525282 64.5444563 39.0004011 64.5444563 35.0067026 63.0156397 37.2328747 61.2076564 36.4548685 61.2076564 40.8129114"></polygon>
        </g>
    </g>
</svg>