<?xml version="1.0" encoding="UTF-8"?>
<svg width="114px" height="114px" viewBox="0 0 114 114" version="1.1" xmlns="http://www.w3.org/2000/svg" xmlns:xlink="http://www.w3.org/1999/xlink">
    <!-- Generator: Sketch 53.2 (72643) - https://sketchapp.com -->
    <title>apple-icon-114x114</title>
    <desc>Created with Sketch.</desc>
    <g id="apple-icon-114x114" stroke="none" stroke-width="1" fill="none" fill-rule="evenodd">
        <g id="Logo-Header" transform="translate(5.000000, 8.000000)">
            <path d="M64.2865,0.155102099 L64.2196615,59.7278616 L86.0172899,58.9832078 L84.3252586,22.0590923 L74.4040523,8.23179637 L64.2865,0.155102099 Z" id="Rectangle" stroke="#979797" stroke-width="1.03745602" fill="#636363" transform="translate(75.129914, 29.671433) rotate(-45.000000) translate(-75.129914, -29.671433) "></path>
            <polygon id="Path-31" stroke="#979797" stroke-width="1.03745602" fill="#000000" points="103.960396 41.25 102.84511 56.5802645 81.0891089 68.0625 81.0891089 52.6111065"></polygon>
            <polygon id="Path-32" stroke="#979797" stroke-width="1.03745602" fill="#000000" points="58.2178218 69.09375 58.2178218 85.4308143 32.2277228 99 32.2277228 81.9421064"></polygon>
            <polygon id="Path-33" fill="#FFFFFF" points="32.4954161 81.46875 6.23762376 55.7214989 15.8149614 28.6433864 39.3664215 33.1235662 45.2740488 15.46875 76.2204979 16.7050007 103.960396 40.7969893 80.8264571 52.4710121 55.1248238 28.6433864 49.4085095 45.3289591 32.4954161 44.0620669 39.3664215 51.3864235 50.6843436 63.2058927"></polygon>
            <polygon id="Path-34" stroke="#979797" stroke-width="1.03745602" fill="#979797" points="15.7253003 29.90625 1.22716804 43.2985589 0 56.548101 5.80883852 72.6258504 32.2277228 99 32.2277228 81.8805325 6.25018265 56.548101"></polygon>
            <polygon id="Path-35" stroke="#979797" stroke-width="1.03745602" fill="#000000" points="81.0891089 53.4235563 81.0891089 69.09375 55.1250873 43.3405875 55.0990099 29.90625"></polygon>
            <polygon id="Path-36" stroke="#979797" stroke-width="1.03745602" fill="#000000" points="49.9009901 46.1878799 49.9009901 53.625 55.0990099 43.1883336 55.0990099 29.90625"></polygon>
            <polygon id="Path-37" stroke="#979797" stroke-width="1.03745602" fill="#000000" points="48.8613861 53.625 40.5877462 53.625 32.2277228 45.375 48.8613861 46.5508824"></polygon>
            <polygon id="Triangle" fill="#FFFFFF" transform="translate(44.702970, 61.875000) scale(-1, 1) translate(-44.702970, -61.875000) " points="58.2178218 42.28125 56.2393113 81.46875 31.1881188 68.4993116"></polygon>
            <polygon id="Path-17" stroke="#000000" stroke-width="1.03745602" fill="#636363" points="1.03960396 42.5308098 10.2385432 44.34375 15.5940594 28.875"></polygon>
            <polygon id="Path-20" stroke="#000000" stroke-width="1.03745602" points="2.07920792 43.3125 6.63819653 56.71875 10.3960396 45.1114865"></polygon>
            <polygon id="Path-24" stroke="#000000" stroke-width="1.03745602" fill="#636363" points="0 55.5748767 6.23762376 56.71875 1.22470222 43.3125"></polygon>
            <polygon id="Path-25" stroke="#000000" stroke-width="1.03745602" points="5.79716645 73.21875 6.23762376 56.8392218 1.84288586e-15 55.6875 0 56.8392218"></polygon>
            <polygon id="Path-29" stroke="#979797" stroke-width="1.03745602" points="76.9306931 17.7097537 61.4672865 22.6875 45.7425743 16.5"></polygon>
            <polygon id="Path-30" stroke="#979797" stroke-width="1.03745602" points="6.23762376 55.6875 20.7920792 44.5864777 16.0973372 29.90625"></polygon>
            <polygon id="Path-38" stroke="#979797" stroke-width="1.03745602" fill="#1B1B1B" points="20.1310706 43.3125 21.8500926 35.8052582 39.0253092 32.6607495 45.7953697 22.8919613 60.2970297 21.6260168 44.902783 15.46875 39.0253092 32.6607495 15.5940594 28.2980164"></polygon>
            <polygon id="Path-39" fill="#FFFFFF" points="40.5445545 91.78125 40.5445545 80.1702562 43.9897025 78.4405254 46.7016774 80.1702562 48.4300214 76.1120723 51.980198 74.25 51.980198 85.8037923 48.9949023 87.3756016 48.9949023 81.3850539 46.7016774 84.7243121 43.9897025 83.5573028 43.9897025 90.0943671"></polygon>
            <polygon id="Path-39" fill="#FFFFFF" points="88.3663366 62.90625 88.3663366 51.2952562 91.8114846 49.5655254 94.5234596 51.2952562 96.2518035 47.2370723 99.8019802 45.375 99.8019802 56.9287923 96.8166845 58.5006016 96.8166845 52.5100539 94.5234596 55.8493121 91.8114846 54.6823028 91.8114846 61.2193671"></polygon>
        </g>
    </g>
</svg>