<?xml version="1.0" encoding="UTF-8"?>
<svg width="72px" height="72px" viewBox="0 0 72 72" version="1.1" xmlns="http://www.w3.org/2000/svg" xmlns:xlink="http://www.w3.org/1999/xlink">
    <!-- Generator: Sketch 53.2 (72643) - https://sketchapp.com -->
    <title>apple-icon-72x72</title>
    <desc>Created with Sketch.</desc>
    <g id="apple-icon-72x72" stroke="none" stroke-width="1" fill="none" fill-rule="evenodd">
        <g id="Logo-Header" transform="translate(3.000000, 5.000000)">
            <path d="M41.0173058,0.105691122 L41.0262734,37.9862128 L54.8628101,37.5323056 L53.7542458,14.0359764 L47.4648499,5.25584562 L41.0173058,0.105691122 Z" id="Rectangle" stroke="#979797" stroke-width="0.712765957" fill="#636363" transform="translate(47.948291, 18.859618) rotate(-45.000000) translate(-47.948291, -18.859618) "></path>
            <polygon id="Path-31" stroke="#979797" stroke-width="0.712765957" fill="#000000" points="66.3366337 26.25 65.624975 36.0056229 51.7425743 43.3125 51.7425743 33.4797951"></polygon>
            <polygon id="Path-32" stroke="#979797" stroke-width="0.712765957" fill="#000000" points="37.1485149 43.96875 37.1485149 54.3650636 20.5643564 63 20.5643564 52.1449768"></polygon>
            <polygon id="Path-33" fill="#FFFFFF" points="20.7351703 51.84375 3.98019802 35.4591356 10.0914516 18.2276095 25.1195261 21.0786331 28.8891549 9.84375 48.6359367 10.630455 66.3366337 25.9617204 51.5749774 33.3906441 35.1748875 18.2276095 31.5273346 28.8457012 20.7351703 28.0394971 25.1195261 32.7004513 32.3414383 40.2219317"></polygon>
            <polygon id="Path-34" stroke="#979797" stroke-width="0.712765957" fill="#979797" points="10.0342393 19.03125 0.783050086 27.5536284 0 35.9851552 3.7065922 46.2164502 20.5643564 63 20.5643564 52.1057934 3.98821179 35.9851552"></polygon>
            <polygon id="Path-35" stroke="#979797" stroke-width="0.712765957" fill="#000000" points="51.7425743 33.9968086 51.7425743 43.96875 35.1750557 27.5803739 35.1584158 19.03125"></polygon>
            <polygon id="Path-36" stroke="#979797" stroke-width="0.712765957" fill="#000000" points="31.8415842 29.3922872 31.8415842 34.125 35.1584158 27.483485 35.1584158 19.03125"></polygon>
            <polygon id="Path-37" stroke="#979797" stroke-width="0.712765957" fill="#000000" points="31.1782178 34.125 25.8988476 34.125 20.5643564 28.875 31.1782178 29.6232888"></polygon>
            <polygon id="Triangle" fill="#FFFFFF" transform="translate(28.524752, 39.375000) scale(-1, 1) translate(-28.524752, -39.375000) " points="37.1485149 26.90625 35.8860367 51.84375 19.9009901 43.590471"></polygon>
            <polygon id="Path-17" stroke="#000000" stroke-width="0.712765957" fill="#636363" points="0.663366337 27.0650608 6.53316565 28.21875 9.95049505 18.375"></polygon>
            <polygon id="Path-20" stroke="#000000" stroke-width="0.712765957" points="1.32673267 27.5625 4.23580159 36.09375 6.63366337 28.7073096"></polygon>
            <polygon id="Path-24" stroke="#000000" stroke-width="0.712765957" fill="#636363" points="0 35.3658307 3.98019802 36.09375 0.781476653 27.5625"></polygon>
            <polygon id="Path-25" stroke="#000000" stroke-width="0.712765957" points="3.69914431 46.59375 3.98019802 36.1704139 1.17593669e-15 35.4375 0 36.1704139"></polygon>
            <polygon id="Path-29" stroke="#979797" stroke-width="0.712765957" points="49.0891089 11.2698433 39.2219828 14.4375 29.1881188 10.5"></polygon>
            <polygon id="Path-30" stroke="#979797" stroke-width="0.712765957" points="3.98019802 35.4375 13.2673267 28.3732131 10.2716342 19.03125"></polygon>
            <polygon id="Path-38" stroke="#979797" stroke-width="0.712765957" fill="#1B1B1B" points="12.8455403 27.5625 13.94244 22.7851643 24.9018639 20.7841133 29.2218073 14.5676117 38.4752475 13.7620107 28.652252 9.84375 24.9018639 20.7841133 9.95049505 18.0078286"></polygon>
            <polygon id="Path-39" fill="#FFFFFF" points="25.8712871 58.40625 25.8712871 51.0174357 28.0696197 49.916698 29.800118 51.0174357 30.902966 48.4349551 33.1683168 47.25 33.1683168 54.6024133 31.2634139 55.6026556 31.2634139 51.7904888 29.800118 53.9154713 28.0696197 53.172829 28.0696197 57.3327791"></polygon>
            <polygon id="Path-39" fill="#FFFFFF" points="56.3861386 40.03125 56.3861386 32.6424357 58.5844712 31.541698 60.3149695 32.6424357 61.4178175 30.0599551 63.6831683 28.875 63.6831683 36.2274133 61.7782653 37.2276556 61.7782653 33.4154888 60.3149695 35.5404713 58.5844712 34.797829 58.5844712 38.9577791"></polygon>
        </g>
    </g>
</svg>