<?xml version="1.0" encoding="UTF-8"?>
<svg width="152px" height="152px" viewBox="0 0 152 152" version="1.1" xmlns="http://www.w3.org/2000/svg" xmlns:xlink="http://www.w3.org/1999/xlink">
    <!-- Generator: Sketch 53.2 (72643) - https://sketchapp.com -->
    <title>apple-icon-152x152</title>
    <desc>Created with Sketch.</desc>
    <g id="apple-icon-152x152" stroke="none" stroke-width="1" fill="none" fill-rule="evenodd">
        <g id="Logo-Header" transform="translate(4.000000, 7.000000)">
            <path d="M89.0058058,0.587237553 L88.5261783,83.2514052 L118.778143,82.0765361 L116.669996,30.8497326 L102.996237,11.7317536 L89.0058058,0.587237553 Z" id="Rectangle" stroke="#979797" stroke-width="1.43564356" fill="#636363" transform="translate(103.664478, 41.551181) rotate(-45.000000) translate(-103.664478, -41.551181) "></path>
            <polygon id="Path-31" stroke="#979797" stroke-width="1.43564356" fill="#000000" points="143.564356 57.5 142.0242 78.8694596 111.980198 94.875 111.980198 73.336694"></polygon>
            <polygon id="Path-32" stroke="#979797" stroke-width="1.43564356" fill="#000000" points="80.3960396 96.3125 80.3960396 119.085377 44.5049505 138 44.5049505 114.22233"></polygon>
            <polygon id="Path-33" fill="#FFFFFF" points="44.8746222 113.5625 8.61386139 77.6723924 21.8397086 39.9271446 54.3631535 46.1722439 62.5213055 21.5625 105.256878 23.2857585 143.564356 56.8685305 111.617488 73.1414109 76.1247566 39.9271446 68.2307988 63.1858217 44.8746222 61.4198508 54.3631535 71.62956 69.992665 88.1051838"></polygon>
            <polygon id="Path-34" stroke="#979797" stroke-width="1.43564356" fill="#979797" points="21.7158909 41.6875 1.69466063 60.3555669 0 78.8246257 8.02172939 101.236034 44.5049505 138 44.5049505 114.1365 8.63120462 78.8246257"></polygon>
            <polygon id="Path-35" stroke="#979797" stroke-width="1.43564356" fill="#000000" points="111.980198 74.4691997 111.980198 96.3125 76.1251206 60.4141523 76.0891089 41.6875"></polygon>
            <polygon id="Path-36" stroke="#979797" stroke-width="1.43564356" fill="#000000" points="68.9108911 64.3831053 68.9108911 74.75 76.0891089 60.2019196 76.0891089 41.6875"></polygon>
            <polygon id="Path-37" stroke="#979797" stroke-width="1.43564356" fill="#000000" points="67.4752475 74.75 56.0497447 74.75 44.5049505 63.25 67.4752475 64.8891088"></polygon>
            <polygon id="Triangle" fill="#FFFFFF" transform="translate(61.732673, 86.250000) scale(-1, 1) translate(-61.732673, -86.250000) " points="80.3960396 58.9375 77.6638109 113.5625 43.0693069 95.4838889"></polygon>
            <polygon id="Path-17" stroke="#000000" stroke-width="1.43564356" fill="#636363" points="1.43564356 59.2853713 14.1389406 61.8125 21.5346535 40.25"></polygon>
            <polygon id="Path-20" stroke="#000000" stroke-width="1.43564356" points="2.87128713 60.375 9.1670333 79.0625 14.3564356 62.8826782"></polygon>
            <polygon id="Path-24" stroke="#000000" stroke-width="1.43564356" fill="#636363" points="0 77.46801 8.61386139 79.0625 1.69125544 60.375"></polygon>
            <polygon id="Path-25" stroke="#000000" stroke-width="1.43564356" points="8.00561082 102.0625 8.61386139 79.2304304 2.54493762e-15 77.625 0 79.2304304"></polygon>
            <polygon id="Path-29" stroke="#979797" stroke-width="1.43564356" points="106.237624 24.6863234 84.8833957 31.625 63.1683168 23"></polygon>
            <polygon id="Path-30" stroke="#979797" stroke-width="1.43564356" points="8.61386139 77.625 28.7128713 62.1508477 22.2296561 41.6875"></polygon>
            <polygon id="Path-38" stroke="#979797" stroke-width="1.43564356" fill="#1B1B1B" points="27.8000499 60.375 30.1739374 49.9103599 53.8920936 45.5271053 63.2412248 31.9100067 83.2673267 30.1453568 62.008605 21.5625 53.8920936 45.5271053 21.5346535 39.4457199"></polygon>
            <polygon id="Path-39" fill="#FFFFFF" points="55.990099 127.9375 55.990099 111.752478 60.7476844 109.341338 64.4927927 111.752478 66.8795533 106.095616 71.7821782 103.5 71.7821782 119.605286 67.659627 121.796293 67.659627 113.445833 64.4927927 118.100556 60.7476844 116.473816 60.7476844 125.586088"></polygon>
            <polygon id="Path-39" fill="#FFFFFF" points="122.029703 87.6875 122.029703 71.5024783 126.787288 69.0913384 130.532397 71.5024783 132.919157 65.845616 137.821782 63.25 137.821782 79.3552862 133.699231 81.5462932 133.699231 73.1958327 130.532397 77.8505562 126.787288 76.223816 126.787288 85.3360875"></polygon>
        </g>
    </g>
</svg>