<?xml version="1.0" encoding="UTF-8"?>
<svg width="32px" height="32px" viewBox="0 0 32 32" version="1.1" xmlns="http://www.w3.org/2000/svg" xmlns:xlink="http://www.w3.org/1999/xlink">
    <!-- Generator: Sketch 53.2 (72643) - https://sketchapp.com -->
    <title>favicon-32x32</title>
    <desc>Created with Sketch.</desc>
    <g id="favicon-32x32" stroke="none" stroke-width="1" fill="none" fill-rule="evenodd">
        <g id="Logo-Header" transform="translate(1.000000, 0.000000)">
            <path d="M18.5445203,0.356021172 L18.3123459,17.4394742 L24.5194777,17.1501528 L24.1651844,6.53455897 L21.3808138,2.60723545 L18.5445203,0.356021172 Z" id="Rectangle" stroke="#979797" stroke-width="0.4" fill="#636363" transform="translate(21.417714, 8.797744) rotate(-45.000000) translate(-21.417714, -8.797744) "></path>
            <polygon id="Path-31" stroke="#979797" stroke-width="0.4" fill="#000000" points="29.7029703 12.0833333 29.3843172 16.5740169 23.1683168 19.9375 23.1683168 15.4113342"></polygon>
            <polygon id="Path-32" stroke="#979797" stroke-width="0.4" fill="#000000" points="16.6336634 20.2395833 16.6336634 25.025188 9.20792079 29 9.20792079 24.0032433"></polygon>
            <polygon id="Path-33" fill="#FFFFFF" points="9.2844046 23.8645833 1.78217822 16.3224593 4.5185604 8.39048691 11.247549 9.70286284 12.9354425 4.53125 21.7772851 4.89338404 29.7029703 11.9506332 23.0932735 15.3702965 15.7499496 8.39048691 14.116717 13.2781799 9.2844046 12.9070701 11.247549 15.0525887 14.481241 18.5148575"></polygon>
            <polygon id="Path-34" stroke="#979797" stroke-width="0.4" fill="#979797" points="4.49294295 8.76041667 0.350619441 12.6834162 0 16.5645953 1.65966815 21.274239 9.20792079 29 9.20792079 23.9852065 1.78576647 16.5645953"></polygon>
            <polygon id="Path-35" stroke="#979797" stroke-width="0.4" fill="#000000" points="23.1683168 15.6493246 23.1683168 20.2395833 15.7500249 12.6957277 15.7425743 8.76041667"></polygon>
            <polygon id="Path-36" stroke="#979797" stroke-width="0.4" fill="#000000" points="14.2574257 13.529783 14.2574257 15.7083333 15.7425743 12.651128 15.7425743 8.76041667"></polygon>
            <polygon id="Path-37" stroke="#979797" stroke-width="0.4" fill="#000000" points="13.960396 15.7083333 11.5964989 15.7083333 9.20792079 13.2916667 13.960396 13.6361171"></polygon>
            <polygon id="Triangle" fill="#FFFFFF" transform="translate(12.476696, 18.200521) scale(-1, 1) translate(-12.476696, -18.200521) " points="16.6336634 12.5364583 15.4772132 23.8645833 8.3197296 20.0654549"></polygon>
            <polygon id="Path-17" stroke="#000000" stroke-width="0.4" fill="#636363" points="0.297029703 12.45852 2.92529805 12.9895833 4.45544554 8.45833333"></polygon>
            <polygon id="Path-20" stroke="#000000" stroke-width="0.4" points="0.594059406 12.6875 1.89662758 16.6145833 2.97029703 13.2144759"></polygon>
            <polygon id="Path-24" stroke="#000000" stroke-width="0.4" fill="#636363" points="0 16.2795093 1.78217822 16.6145833 0.349914919 12.6875"></polygon>
            <polygon id="Path-25" stroke="#000000" stroke-width="0.4" points="1.65633327 21.4479167 1.78217822 16.6498731 5.26538817e-16 16.3125 0 16.6498731"></polygon>
            <polygon id="Path-29" stroke="#979797" stroke-width="0.4" points="21.980198 5.18770564 17.5620819 6.64583333 13.0693069 4.83333333"></polygon>
            <polygon id="Path-30" stroke="#979797" stroke-width="0.4" points="1.78217822 16.3125 5.94059406 13.0606854 4.59923919 8.76041667"></polygon>
            <polygon id="Path-38" stroke="#979797" stroke-width="0.4" fill="#1B1B1B" points="5.75173447 12.6875 6.24288359 10.488409 11.1500883 9.56729025 13.0843913 6.70572604 17.2277228 6.33489381 12.8293666 4.53125 11.1500883 9.56729025 4.45544554 8.28931795"></polygon>
            <polygon id="Path-39" fill="#FFFFFF" points="11.5841584 26.8854167 11.5841584 23.4842165 12.5684864 22.9775276 13.3433364 23.4842165 13.837149 22.2954555 14.8514851 21.75 14.8514851 25.1344442 13.9985435 25.5948732 13.9985435 23.8400663 13.3433364 24.8182328 12.5684864 24.4763816 12.5684864 26.3912793"></polygon>
            <polygon id="Path-39" fill="#FFFFFF" points="25.2475248 18.4270833 25.2475248 15.0258831 26.2318528 14.5191943 27.0067027 15.0258831 27.5005153 13.8371222 28.5148515 13.2916667 28.5148515 16.6761109 27.6619099 17.1365399 27.6619099 15.3817329 27.0067027 16.3598995 26.2318528 16.0180483 26.2318528 17.9329459"></polygon>
        </g>
    </g>
</svg>