<?xml version="1.0" encoding="UTF-8"?>
<svg width="96px" height="96px" viewBox="0 0 96 96" version="1.1" xmlns="http://www.w3.org/2000/svg" xmlns:xlink="http://www.w3.org/1999/xlink">
    <!-- Generator: Sketch 53.2 (72643) - https://sketchapp.com -->
    <title>favicon-96x96</title>
    <desc>Created with Sketch.</desc>
    <g id="favicon-96x96" stroke="none" stroke-width="1" fill="none" fill-rule="evenodd">
        <g id="Logo-Header" transform="translate(3.000000, 6.000000)">
            <path d="M55.1619731,0.244772829 L55.0618579,51.2457293 L73.6928192,50.593605 L72.2698817,18.9624018 L63.7775948,7.11986759 L55.1619731,0.244772829 Z" id="Rectangle" stroke="#979797" stroke-width="0.957446809" fill="#636363" transform="translate(64.387474, 25.496695) rotate(-45.000000) translate(-64.387474, -25.496695) "></path>
            <polygon id="Path-31" stroke="#979797" stroke-width="0.957446809" fill="#000000" points="89.1089109 35.4166667 88.1529515 48.579015 69.5049505 58.4375 69.5049505 45.1711521"></polygon>
            <polygon id="Path-32" stroke="#979797" stroke-width="0.957446809" fill="#000000" points="49.9009901 59.3229167 49.9009901 73.349689 27.6237624 85 27.6237624 70.3543338"></polygon>
            <polygon id="Path-33" fill="#FFFFFF" points="27.8532138 69.9479167 5.34653465 47.841691 13.5556812 24.5928065 33.742647 28.4394256 38.8063275 13.28125 65.3318553 14.3426774 89.1089109 35.027718 69.2798204 45.050869 47.2498489 24.5928065 42.350151 38.9188032 27.8532138 37.8310675 33.742647 44.1196565 43.4437231 54.2676857"></polygon>
            <polygon id="Path-34" stroke="#979797" stroke-width="0.957446809" fill="#979797" points="13.4788289 25.6770833 1.05185832 37.1755303 0 48.5513999 4.97900445 62.3555281 27.6237624 85 27.6237624 70.3014673 5.35729942 48.5513999"></polygon>
            <polygon id="Path-35" stroke="#979797" stroke-width="0.957446809" fill="#000000" points="69.5049505 45.86871 69.5049505 59.3229167 47.2500748 37.2116155 47.2277228 25.6770833"></polygon>
            <polygon id="Path-36" stroke="#979797" stroke-width="0.957446809" fill="#000000" points="42.7722772 39.6562605 42.7722772 46.0416667 47.2277228 37.0808925 47.2277228 25.6770833"></polygon>
            <polygon id="Path-37" stroke="#979797" stroke-width="0.957446809" fill="#000000" points="41.8811881 46.0416667 34.7894967 46.0416667 27.6237624 38.9583333 41.8811881 39.9679293"></polygon>
            <polygon id="Triangle" fill="#FFFFFF" transform="translate(38.316832, 53.125000) scale(-1, 1) translate(-38.316832, -53.125000) " points="49.9009901 36.3020833 48.205124 69.9479167 26.7326733 58.8125403"></polygon>
            <polygon id="Path-17" stroke="#000000" stroke-width="0.957446809" fill="#636363" points="0.891089109 36.5163519 8.77589415 38.0729167 13.3663366 24.7916667"></polygon>
            <polygon id="Path-20" stroke="#000000" stroke-width="0.957446809" points="1.78217822 37.1875 5.68988274 48.6979167 8.91089109 38.7320844"></polygon>
            <polygon id="Path-24" stroke="#000000" stroke-width="0.957446809" fill="#636363" points="0 47.7158033 5.34653465 48.6979167 1.04974476 37.1875"></polygon>
            <polygon id="Path-25" stroke="#000000" stroke-width="0.957446809" points="4.96899982 62.8645833 5.34653465 48.8013521 1.57961645e-15 47.8125 0 48.8013521"></polygon>
            <polygon id="Path-29" stroke="#979797" stroke-width="0.957446809" points="65.9405941 15.2053441 52.6862456 19.4791667 39.2079208 14.1666667"></polygon>
            <polygon id="Path-30" stroke="#979797" stroke-width="0.957446809" points="5.34653465 47.8125 17.8217822 38.2813193 13.7977176 25.6770833"></polygon>
            <polygon id="Path-38" stroke="#979797" stroke-width="0.957446809" fill="#1B1B1B" points="17.2552034 37.1875 18.7286508 30.7418884 33.450265 28.0420576 39.253174 19.6547142 51.6831683 18.5677922 38.4880997 13.28125 33.450265 28.0420576 13.3663366 24.2962767"></polygon>
            <polygon id="Path-39" fill="#FFFFFF" points="34.7524752 78.8020833 34.7524752 68.8330482 37.7054593 67.3479258 40.0300092 68.8330482 41.5114469 65.348749 44.5544554 63.75 44.5544554 73.6699227 41.9956306 75.0194559 41.9956306 69.8760563 40.0300092 72.7430962 37.7054593 71.7411185 37.7054593 77.3537495"></polygon>
            <polygon id="Path-39" fill="#FFFFFF" points="75.7425743 54.0104167 75.7425743 44.0413816 78.6955583 42.5562592 81.0201082 44.0413816 82.5015459 40.5570823 85.5445545 38.9583333 85.5445545 48.878256 82.9857296 50.2277893 82.9857296 45.0843897 81.0201082 47.9514296 78.6955583 46.9494519 78.6955583 52.5620829"></polygon>
        </g>
    </g>
</svg>