<?xml version="1.0" encoding="UTF-8"?>
<svg width="16px" height="16px" viewBox="0 0 16 16" version="1.1" xmlns="http://www.w3.org/2000/svg" xmlns:xlink="http://www.w3.org/1999/xlink">
    <!-- Generator: Sketch 53.2 (72643) - https://sketchapp.com -->
    <title>favicon-16x16</title>
    <desc>Created with Sketch.</desc>
    <g id="favicon-16x16" stroke="none" stroke-width="1" fill="none" fill-rule="evenodd">
        <g id="Logo-Header" transform="translate(0.500000, -0.500000)">
            <path d="M9.18964432,1.04727953 L9.22280044,9.43231589 L12.2669889,9.34375725 L12.0185474,4.15334735 L10.5982733,2.17435074 L9.18964432,1.04727953 Z" id="Rectangle" stroke="#979797" stroke-width="0.2" fill="#636363" transform="translate(10.730282, 5.186896) rotate(-45.000000) translate(-10.730282, -5.186896) "></path>
            <polygon id="Path-31" stroke="#979797" stroke-width="0.2" fill="#000000" points="14.8514851 6.83333333 14.6921586 9.00124953 11.5841584 10.625 11.5841584 8.43995446"></polygon>
            <polygon id="Path-32" stroke="#979797" stroke-width="0.2" fill="#000000" points="8.31683168 10.7708333 8.31683168 13.0811252 4.6039604 15 4.6039604 12.5877726"></polygon>
            <polygon id="Path-33" fill="#FFFFFF" points="4.6422023 12.5208333 0.891089109 8.87980792 2.2592802 5.05057989 5.6237745 5.68414068 6.46772125 3.1875 10.8886426 3.36232333 14.8514851 6.76927121 11.5466367 8.42014313 7.87497482 5.05057989 7.0583585 7.41015583 4.6422023 7.23099936 5.6237745 8.26676696 7.24062051 9.93820705"></polygon>
            <polygon id="Path-34" stroke="#979797" stroke-width="0.2" fill="#979797" points="2.24647148 5.22916667 0.175309721 7.12302853 0 8.99670116 0.829834075 11.2703223 4.6039604 15 4.6039604 12.5790652 0.892883236 8.99670116"></polygon>
            <polygon id="Path-35" stroke="#979797" stroke-width="0.2" fill="#000000" points="11.5841584 8.55484635 11.5841584 10.7708333 7.87501247 7.12897197 7.87128713 5.22916667"></polygon>
            <polygon id="Path-36" stroke="#979797" stroke-width="0.2" fill="#000000" points="7.12871287 7.53161937 7.12871287 8.58333333 7.87128713 7.10744112 7.87128713 5.22916667"></polygon>
            <polygon id="Path-37" stroke="#979797" stroke-width="0.2" fill="#000000" points="6.98019802 8.58333333 5.79824946 8.58333333 4.6039604 7.41666667 6.98019802 7.58295306"></polygon>
            <polygon id="Triangle" fill="#FFFFFF" transform="translate(6.339269, 9.822917) scale(-1, 1) translate(-6.339269, -9.822917) " points="8.31683168 7.125 7.94044844 12.5208333 4.36170666 10.6867713"></polygon>
            <polygon id="Path-17" stroke="#000000" stroke-width="0.2" fill="#636363" points="0.148514851 7.01445795 1.46264903 7.27083333 2.22772277 5.08333333"></polygon>
            <polygon id="Path-20" stroke="#000000" stroke-width="0.2" points="0.297029703 7.125 0.94831379 9.02083333 1.48514851 7.37940214"></polygon>
            <polygon id="Path-24" stroke="#000000" stroke-width="0.2" fill="#636363" points="0 8.85907348 0.891089109 9.02083333 0.17495746 7.125"></polygon>
            <polygon id="Path-25" stroke="#000000" stroke-width="0.2" points="0.828166636 11.3541667 0.891089109 9.03786975 2.63269408e-16 8.875 0 9.03786975"></polygon>
            <polygon id="Path-29" stroke="#979797" stroke-width="0.2" points="10.990099 3.50440962 8.78104093 4.20833333 6.53465347 3.33333333"></polygon>
            <polygon id="Path-30" stroke="#979797" stroke-width="0.2" points="0.891089109 8.875 2.97029703 7.30515847 2.2996196 5.22916667"></polygon>
            <polygon id="Path-38" stroke="#979797" stroke-width="0.2" fill="#1B1B1B" points="2.87586724 7.125 3.1214418 6.06336985 5.57504417 5.61869185 6.54219567 4.23724705 8.61386139 4.0582246 6.41468328 3.1875 5.57504417 5.61869185 2.22772277 5.0017397"></polygon>
            <polygon id="Path-39" fill="#FFFFFF" points="5.79207921 13.9791667 5.79207921 12.3372079 6.28424321 12.0925995 6.67166821 12.3372079 6.91857448 11.7633234 7.42574257 11.5 7.42574257 13.1338696 6.99927176 13.3561457 6.99927176 12.5089975 6.67166821 12.9812159 6.28424321 12.8161842 6.28424321 13.7406176"></polygon>
            <polygon id="Path-39" fill="#FFFFFF" points="12.6237624 9.89583333 12.6237624 8.25387461 13.1159264 8.00926621 13.5033514 8.25387461 13.7502576 7.67999003 14.2574257 7.41666667 14.2574257 9.05053629 13.8309549 9.27281235 13.8309549 8.42566418 13.5033514 8.89788252 13.1159264 8.7328509 13.1159264 9.65728424"></polygon>
        </g>
    </g>
</svg>