<?xml version="1.0" encoding="UTF-8"?>
<svg width="144px" height="144px" viewBox="0 0 144 144" version="1.1" xmlns="http://www.w3.org/2000/svg" xmlns:xlink="http://www.w3.org/1999/xlink">
    <!-- Generator: Sketch 53.2 (72643) - https://sketchapp.com -->
    <title>ms-icon-144x144</title>
    <desc>Created with Sketch.</desc>
    <g id="ms-icon-144x144" stroke="none" stroke-width="1" fill="none" fill-rule="evenodd">
        <g id="Logo-Header" transform="translate(4.000000, 7.000000)">
            <path d="M84.0801439,0.555213636 L83.7440636,78.3704814 L112.170537,77.3086085 L110.113083,29.0498596 L97.1994645,11.0129225 L84.0801439,0.555213636 Z" id="Rectangle" stroke="#979797" stroke-width="1.46424823" fill="#636363" transform="translate(97.970998, 39.085578) rotate(-45.000000) translate(-97.970998, -39.085578) "></path>
            <polygon id="Path-31" stroke="#979797" stroke-width="1.46424823" fill="#000000" points="135.643564 54.1666667 134.188382 74.297317 105.80198 89.375 105.80198 69.0852914"></polygon>
            <polygon id="Path-32" stroke="#979797" stroke-width="1.46424823" fill="#000000" points="75.960396 90.7291667 75.960396 112.181877 42.049505 130 42.049505 107.600746"></polygon>
            <polygon id="Path-33" fill="#FFFFFF" points="42.398781 106.979167 8.13861386 73.169645 20.6347591 37.6125275 51.3638071 43.495592 59.0718541 20.3125 99.449602 21.9358595 135.643564 53.5718041 105.459282 68.9013291 71.9247701 37.6125275 64.466341 59.5228755 42.398781 57.8592798 51.3638071 67.4771218 66.1310007 82.9976369"></polygon>
            <polygon id="Path-34" stroke="#979797" stroke-width="1.46424823" fill="#979797" points="20.5177728 39.2708333 1.60116212 56.8566935 0 74.2550822 7.57915122 95.3672783 42.049505 130 42.049505 107.519891 8.15500022 74.2550822"></polygon>
            <polygon id="Path-35" stroke="#979797" stroke-width="1.46424823" fill="#000000" points="105.80198 70.1521447 105.80198 90.7291667 71.9251139 56.9118826 71.8910891 39.2708333"></polygon>
            <polygon id="Path-36" stroke="#979797" stroke-width="1.46424823" fill="#000000" points="65.1089109 60.6507513 65.1089109 70.4166667 71.8910891 56.7119532 71.8910891 39.2708333"></polygon>
            <polygon id="Path-37" stroke="#979797" stroke-width="1.46424823" fill="#000000" points="63.7524752 70.4166667 52.957345 70.4166667 42.049505 59.5833333 63.7524752 61.1274213"></polygon>
            <polygon id="Triangle" fill="#FFFFFF" transform="translate(58.326733, 81.250000) scale(-1, 1) translate(-58.326733, -81.250000) " points="75.960396 55.5208333 73.378911 106.979167 40.6930693 89.948591"></polygon>
            <polygon id="Path-17" stroke="#000000" stroke-width="1.46424823" fill="#636363" points="1.35643564 55.8485381 13.3588611 58.2291667 20.3465347 37.9166667"></polygon>
            <polygon id="Path-20" stroke="#000000" stroke-width="1.46424823" points="2.71287129 56.875 8.66126595 74.4791667 13.5643564 59.2373056"></polygon>
            <polygon id="Path-24" stroke="#000000" stroke-width="1.46424823" fill="#636363" points="0 72.9771109 8.13861386 74.4791667 1.5979448 56.875"></polygon>
            <polygon id="Path-25" stroke="#000000" stroke-width="1.46424823" points="7.56392194 96.1458333 8.13861386 74.637362 2.40452726e-15 73.125 0 74.637362"></polygon>
            <polygon id="Path-29" stroke="#979797" stroke-width="1.46424823" points="100.376238 23.2552322 80.2001738 29.7916667 59.6831683 21.6666667"></polygon>
            <polygon id="Path-30" stroke="#979797" stroke-width="1.46424823" points="8.13861386 73.125 27.1287129 58.5479 21.0031923 39.2708333"></polygon>
            <polygon id="Path-38" stroke="#979797" stroke-width="1.46424823" fill="#1B1B1B" points="26.2662541 56.875 28.5091684 47.0170057 50.9187367 42.8878529 59.7520538 30.0601512 78.6732673 28.3977999 58.5874406 20.3125 50.9187367 42.8878529 20.3465347 37.1590115"></polygon>
            <polygon id="Path-39" fill="#FFFFFF" points="52.9009901 120.520833 52.9009901 105.274074 57.396088 103.00271 60.9345696 105.274074 63.1896469 99.9451455 67.8217822 97.5 67.8217822 112.671646 63.9266821 114.735639 63.9266821 106.869263 60.9345696 111.254147 57.396088 109.721711 57.396088 118.305735"></polygon>
            <polygon id="Path-39" fill="#FFFFFF" points="115.29703 82.6041667 115.29703 67.3574071 119.792128 65.0860434 123.330609 67.3574071 125.585687 62.0284788 130.217822 59.5833333 130.217822 74.7549798 126.322722 76.8189718 126.322722 68.952596 123.330609 73.3374805 119.792128 71.805044 119.792128 80.3890679"></polygon>
        </g>
    </g>
</svg>