<?xml version="1.0" encoding="UTF-8"?>
<svg width="102px" height="83px" viewBox="0 0 102 83" version="1.1" xmlns="http://www.w3.org/2000/svg" xmlns:xlink="http://www.w3.org/1999/xlink">
    <!-- Generator: Sketch 53.2 (72643) - https://sketchapp.com -->
    <title>Logo Header</title>
    <desc>Created with Sketch.</desc>
    <g id="Page-1" stroke="none" stroke-width="1" fill="none" fill-rule="evenodd">
        <g id="Desktop---Portfolio" transform="translate(-33.000000, -28.000000)">
            <g id="Logo-Header" transform="translate(34.000000, 14.000000)">
                <path d="M61.9751534,0.373313934 L61.6784712,57.9144104 L82.7357113,57.1102144 L81.2452238,21.4511004 L71.7181775,8.13672453 L61.9751534,0.373313934 Z" id="Rectangle" stroke="#979797" fill="#636363" transform="translate(72.216008, 28.886900) rotate(-45.000000) translate(-72.216008, -28.886900) "></path>
                <polygon id="Path-31" stroke="#979797" fill="#000000" points="100 40 98.9272012 54.865711 78 66 78 51.0168306"></polygon>
                <polygon id="Path-32" stroke="#979797" fill="#000000" points="56 67 56 82.8420017 31 96 31 79.4590123"></polygon>
                <polygon id="Path-33" fill="#FFFFFF" points="31.2574955 79 6 54.0329686 15.2124867 27.7754049 37.8667483 32.1198218 43.5493231 15 73.3168598 16.1987886 100 39.5607168 77.747354 50.8809815 53.0248305 27.7754049 47.5262806 43.9553542 31.2574955 42.7268528 37.8667483 49.8292592 48.7535115 61.2905627"></polygon>
                <polygon id="Path-34" stroke="#979797" fill="#979797" points="15.1262413 29 1.18041879 41.9864813 0 54.8345222 5.58754944 70.425067 31 96 31 79.3993042 6.01208046 54.8345222"></polygon>
                <polygon id="Path-35" stroke="#979797" fill="#000000" points="78 51.8046607 78 67 53.025084 42.0272364 53 29"></polygon>
                <polygon id="Path-36" stroke="#979797" fill="#000000" points="48 44.7882471 48 52 53 41.8795962 53 29"></polygon>
                <polygon id="Path-37" stroke="#979797" fill="#000000" points="47 52 39.0415463 52 31 44 47 45.1402496"></polygon>
                <polygon id="Triangle" fill="#FFFFFF" transform="translate(43.000000, 60.000000) scale(-1, 1) translate(-43.000000, -60.000000) " points="56 41 54.0968614 79 30 66.4235749"></polygon>
                <polygon id="Path-17" stroke="#000000" fill="#636363" points="1 41.2419974 9.84850344 43 15 28"></polygon>
                <polygon id="Path-20" stroke="#000000" points="2 42 6.38531285 55 10 43.7444718"></polygon>
                <polygon id="Path-24" stroke="#000000" fill="#636363" points="0 53.8907896 6 55 1.1780469 42"></polygon>
                <polygon id="Path-25" stroke="#000000" points="5.57632202 71 6 55.1168212 1.77268068e-15 54 0 55.1168212"></polygon>
                <polygon id="Path-29" stroke="#979797" points="74 17.1730945 59.1256756 22 44 16"></polygon>
                <polygon id="Path-30" stroke="#979797" points="6 54 20 43.2353723 15.4841053 29"></polygon>
                <polygon id="Path-38" stroke="#979797" fill="#1B1B1B" points="19.3641727 42 21.0177081 34.7202504 37.5386307 31.6710298 44.0507842 22.1982655 58 20.970683 43.1922007 15 37.5386307 31.6710298 15 27.4405008"></polygon>
                <polygon id="Path-39" fill="#FFFFFF" points="39 89 39 77.7408545 42.3139043 76.0635398 44.9225659 77.7408545 46.5850682 73.8056459 50 72 50 83.2036774 47.1284299 84.7278561 47.1284299 78.9188401 44.9225659 82.1569087 42.3139043 81.0252633 42.3139043 87.3642348"></polygon>
                <polygon id="Path-39" fill="#FFFFFF" points="85 61 85 49.7408545 88.3139043 48.0635398 90.9225659 49.7408545 92.5850682 45.8056459 96 44 96 55.2036774 93.1284299 56.7278561 93.1284299 50.9188401 90.9225659 54.1569087 88.3139043 53.0252633 88.3139043 59.3642348"></polygon>
            </g>
        </g>
    </g>
</svg>